<?xml version="1.0" encoding="UTF-8" standalone="no"?>
<!DOCTYPE svg PUBLIC "-//W3C//DTD SVG 1.1//EN"
 "http://www.w3.org/Graphics/SVG/1.1/DTD/svg11.dtd">
<!-- Generated by graphviz version 2.36.0 (20140111.2315)
 -->
<!-- Title: G Pages: 1 -->
<svg width="481pt" height="2100pt"
 viewBox="0.00 0.00 481.00 2100.00" xmlns="http://www.w3.org/2000/svg" xmlns:xlink="http://www.w3.org/1999/xlink">
<g id="graph0" class="graph" transform="scale(1 1) rotate(0) translate(4 2096)">
<title>G</title>
<polygon fill="white" stroke="none" points="-4,4 -4,-2096 477,-2096 477,4 -4,4"/>
<!-- n1 -->
<g id="node1" class="node"><title>n1</title>
<ellipse fill="none" stroke="#cdb79e" cx="215" cy="-2054" rx="67.2629" ry="37.4533"/>
<text text-anchor="middle" x="215" y="-2065.3" font-family="Times,serif" font-size="14.00">Input</text>
<text text-anchor="middle" x="215" y="-2050.3" font-family="Times,serif" font-size="14.00">Storage id: 1</text>
<text text-anchor="middle" x="215" y="-2035.3" font-family="Times,serif" font-size="14.00">Size: 1572864</text>
</g>
<!-- n2 -->
<g id="node2" class="node"><title>n2</title>
<ellipse fill="none" stroke="#cd1076" cx="215" cy="-1942" rx="201.288" ry="37.4533"/>
<text text-anchor="middle" x="215" y="-1953.3" font-family="Times,serif" font-size="14.00">cudnn.SpatialConvolution(3 &#45;&gt; 64, 4x4, 2,2, 1,1)</text>
<text text-anchor="middle" x="215" y="-1938.3" font-family="Times,serif" font-size="14.00">Storage id: 2</text>
<text text-anchor="middle" x="215" y="-1923.3" font-family="Times,serif" font-size="14.00">Size: 8388608</text>
</g>
<!-- n1&#45;&gt;n2 -->
<g id="edge1" class="edge"><title>n1&#45;&gt;n2</title>
<path fill="none" stroke="black" d="M215,-2016.37C215,-2007.93 215,-1998.83 215,-1990.01"/>
<polygon fill="black" stroke="black" points="218.5,-1989.84 215,-1979.84 211.5,-1989.84 218.5,-1989.84"/>
</g>
<!-- n3 -->
<g id="node3" class="node"><title>n3</title>
<ellipse fill="none" stroke="#cd1076" cx="215" cy="-1830" rx="94.1301" ry="37.4533"/>
<text text-anchor="middle" x="215" y="-1841.3" font-family="Times,serif" font-size="14.00">nn.LeakyReLU(0.01)</text>
<text text-anchor="middle" x="215" y="-1826.3" font-family="Times,serif" font-size="14.00">Storage id: 2</text>
<text text-anchor="middle" x="215" y="-1811.3" font-family="Times,serif" font-size="14.00">Size: 8388608</text>
</g>
<!-- n2&#45;&gt;n3 -->
<g id="edge2" class="edge"><title>n2&#45;&gt;n3</title>
<path fill="none" stroke="black" d="M215,-1904.37C215,-1895.93 215,-1886.83 215,-1878.01"/>
<polygon fill="black" stroke="black" points="218.5,-1877.84 215,-1867.84 211.5,-1877.84 218.5,-1877.84"/>
</g>
<!-- n4 -->
<g id="node4" class="node"><title>n4</title>
<ellipse fill="none" stroke="#8b7355" cx="215" cy="-1718" rx="211.137" ry="37.4533"/>
<text text-anchor="middle" x="215" y="-1729.3" font-family="Times,serif" font-size="14.00">cudnn.SpatialConvolution(64 &#45;&gt; 128, 4x4, 2,2, 1,1)</text>
<text text-anchor="middle" x="215" y="-1714.3" font-family="Times,serif" font-size="14.00">Storage id: 3</text>
<text text-anchor="middle" x="215" y="-1699.3" font-family="Times,serif" font-size="14.00">Size: 4194304</text>
</g>
<!-- n3&#45;&gt;n4 -->
<g id="edge3" class="edge"><title>n3&#45;&gt;n4</title>
<path fill="none" stroke="black" d="M215,-1792.37C215,-1783.93 215,-1774.83 215,-1766.01"/>
<polygon fill="black" stroke="black" points="218.5,-1765.84 215,-1755.84 211.5,-1765.84 218.5,-1765.84"/>
</g>
<!-- n5 -->
<g id="node5" class="node"><title>n5</title>
<ellipse fill="none" stroke="#cdb79e" cx="215" cy="-1606" rx="172.301" ry="37.4533"/>
<text text-anchor="middle" x="215" y="-1617.3" font-family="Times,serif" font-size="14.00">nn.SpatialBatchNormalization (4D) (128)</text>
<text text-anchor="middle" x="215" y="-1602.3" font-family="Times,serif" font-size="14.00">Storage id: 4</text>
<text text-anchor="middle" x="215" y="-1587.3" font-family="Times,serif" font-size="14.00">Size: 4194304</text>
</g>
<!-- n4&#45;&gt;n5 -->
<g id="edge4" class="edge"><title>n4&#45;&gt;n5</title>
<path fill="none" stroke="black" d="M215,-1680.37C215,-1671.93 215,-1662.83 215,-1654.01"/>
<polygon fill="black" stroke="black" points="218.5,-1653.84 215,-1643.84 211.5,-1653.84 218.5,-1653.84"/>
</g>
<!-- n6 -->
<g id="node6" class="node"><title>n6</title>
<ellipse fill="none" stroke="#cdb79e" cx="215" cy="-1494" rx="94.1301" ry="37.4533"/>
<text text-anchor="middle" x="215" y="-1505.3" font-family="Times,serif" font-size="14.00">nn.LeakyReLU(0.01)</text>
<text text-anchor="middle" x="215" y="-1490.3" font-family="Times,serif" font-size="14.00">Storage id: 4</text>
<text text-anchor="middle" x="215" y="-1475.3" font-family="Times,serif" font-size="14.00">Size: 4194304</text>
</g>
<!-- n5&#45;&gt;n6 -->
<g id="edge5" class="edge"><title>n5&#45;&gt;n6</title>
<path fill="none" stroke="black" d="M215,-1568.37C215,-1559.93 215,-1550.83 215,-1542.01"/>
<polygon fill="black" stroke="black" points="218.5,-1541.84 215,-1531.84 211.5,-1541.84 218.5,-1541.84"/>
</g>
<!-- n7 -->
<g id="node7" class="node"><title>n7</title>
<ellipse fill="none" stroke="darkslateblue" cx="215" cy="-1382" rx="215.501" ry="37.4533"/>
<text text-anchor="middle" x="215" y="-1393.3" font-family="Times,serif" font-size="14.00">cudnn.SpatialConvolution(128 &#45;&gt; 256, 4x4, 2,2, 1,1)</text>
<text text-anchor="middle" x="215" y="-1378.3" font-family="Times,serif" font-size="14.00">Storage id: 5</text>
<text text-anchor="middle" x="215" y="-1363.3" font-family="Times,serif" font-size="14.00">Size: 2097152</text>
</g>
<!-- n6&#45;&gt;n7 -->
<g id="edge6" class="edge"><title>n6&#45;&gt;n7</title>
<path fill="none" stroke="black" d="M215,-1456.37C215,-1447.93 215,-1438.83 215,-1430.01"/>
<polygon fill="black" stroke="black" points="218.5,-1429.84 215,-1419.84 211.5,-1429.84 218.5,-1429.84"/>
</g>
<!-- n8 -->
<g id="node8" class="node"><title>n8</title>
<ellipse fill="none" stroke="#ee7621" cx="215" cy="-1270" rx="172.301" ry="37.4533"/>
<text text-anchor="middle" x="215" y="-1281.3" font-family="Times,serif" font-size="14.00">nn.SpatialBatchNormalization (4D) (256)</text>
<text text-anchor="middle" x="215" y="-1266.3" font-family="Times,serif" font-size="14.00">Storage id: 6</text>
<text text-anchor="middle" x="215" y="-1251.3" font-family="Times,serif" font-size="14.00">Size: 2097152</text>
</g>
<!-- n7&#45;&gt;n8 -->
<g id="edge7" class="edge"><title>n7&#45;&gt;n8</title>
<path fill="none" stroke="black" d="M215,-1344.37C215,-1335.93 215,-1326.83 215,-1318.01"/>
<polygon fill="black" stroke="black" points="218.5,-1317.84 215,-1307.84 211.5,-1317.84 218.5,-1317.84"/>
</g>
<!-- n9 -->
<g id="node9" class="node"><title>n9</title>
<ellipse fill="none" stroke="#ee7621" cx="215" cy="-1158" rx="94.1301" ry="37.4533"/>
<text text-anchor="middle" x="215" y="-1169.3" font-family="Times,serif" font-size="14.00">nn.LeakyReLU(0.01)</text>
<text text-anchor="middle" x="215" y="-1154.3" font-family="Times,serif" font-size="14.00">Storage id: 6</text>
<text text-anchor="middle" x="215" y="-1139.3" font-family="Times,serif" font-size="14.00">Size: 2097152</text>
</g>
<!-- n8&#45;&gt;n9 -->
<g id="edge8" class="edge"><title>n8&#45;&gt;n9</title>
<path fill="none" stroke="black" d="M215,-1232.37C215,-1223.93 215,-1214.83 215,-1206.01"/>
<polygon fill="black" stroke="black" points="218.5,-1205.84 215,-1195.84 211.5,-1205.84 218.5,-1205.84"/>
</g>
<!-- n10 -->
<g id="node10" class="node"><title>n10</title>
<ellipse fill="none" stroke="firebrick" cx="215" cy="-1046" rx="215.501" ry="37.4533"/>
<text text-anchor="middle" x="215" y="-1057.3" font-family="Times,serif" font-size="14.00">cudnn.SpatialConvolution(256 &#45;&gt; 512, 4x4, 2,2, 1,1)</text>
<text text-anchor="middle" x="215" y="-1042.3" font-family="Times,serif" font-size="14.00">Storage id: 7</text>
<text text-anchor="middle" x="215" y="-1027.3" font-family="Times,serif" font-size="14.00">Size: 1048576</text>
</g>
<!-- n9&#45;&gt;n10 -->
<g id="edge9" class="edge"><title>n9&#45;&gt;n10</title>
<path fill="none" stroke="black" d="M215,-1120.37C215,-1111.93 215,-1102.83 215,-1094.01"/>
<polygon fill="black" stroke="black" points="218.5,-1093.84 215,-1083.84 211.5,-1093.84 218.5,-1093.84"/>
</g>
<!-- n11 -->
<g id="node11" class="node"><title>n11</title>
<ellipse fill="none" stroke="#8b2323" cx="215" cy="-934" rx="172.301" ry="37.4533"/>
<text text-anchor="middle" x="215" y="-945.3" font-family="Times,serif" font-size="14.00">nn.SpatialBatchNormalization (4D) (512)</text>
<text text-anchor="middle" x="215" y="-930.3" font-family="Times,serif" font-size="14.00">Storage id: 8</text>
<text text-anchor="middle" x="215" y="-915.3" font-family="Times,serif" font-size="14.00">Size: 1048576</text>
</g>
<!-- n10&#45;&gt;n11 -->
<g id="edge10" class="edge"><title>n10&#45;&gt;n11</title>
<path fill="none" stroke="black" d="M215,-1008.37C215,-999.927 215,-990.829 215,-982.011"/>
<polygon fill="black" stroke="black" points="218.5,-981.843 215,-971.844 211.5,-981.844 218.5,-981.843"/>
</g>
<!-- n12 -->
<g id="node12" class="node"><title>n12</title>
<ellipse fill="none" stroke="#8b2323" cx="215" cy="-822" rx="94.1301" ry="37.4533"/>
<text text-anchor="middle" x="215" y="-833.3" font-family="Times,serif" font-size="14.00">nn.LeakyReLU(0.01)</text>
<text text-anchor="middle" x="215" y="-818.3" font-family="Times,serif" font-size="14.00">Storage id: 8</text>
<text text-anchor="middle" x="215" y="-803.3" font-family="Times,serif" font-size="14.00">Size: 1048576</text>
</g>
<!-- n11&#45;&gt;n12 -->
<g id="edge11" class="edge"><title>n11&#45;&gt;n12</title>
<path fill="none" stroke="black" d="M215,-896.372C215,-887.927 215,-878.829 215,-870.011"/>
<polygon fill="black" stroke="black" points="218.5,-869.843 215,-859.844 211.5,-869.844 218.5,-869.843"/>
</g>
<!-- n13 -->
<g id="node13" class="node"><title>n13</title>
<ellipse fill="none" stroke="blue" cx="215" cy="-710" rx="185.454" ry="37.4533"/>
<text text-anchor="middle" x="215" y="-721.3" font-family="Times,serif" font-size="14.00">cudnn.SpatialConvolution(512 &#45;&gt; 1344, 4x4)</text>
<text text-anchor="middle" x="215" y="-706.3" font-family="Times,serif" font-size="14.00">Storage id: 9</text>
<text text-anchor="middle" x="215" y="-691.3" font-family="Times,serif" font-size="14.00">Size: 172032</text>
</g>
<!-- n12&#45;&gt;n13 -->
<g id="edge12" class="edge"><title>n12&#45;&gt;n13</title>
<path fill="none" stroke="black" d="M215,-784.372C215,-775.927 215,-766.829 215,-758.011"/>
<polygon fill="black" stroke="black" points="218.5,-757.843 215,-747.844 211.5,-757.844 218.5,-757.843"/>
</g>
<!-- n14 -->
<g id="node14" class="node"><title>n14</title>
<ellipse fill="none" stroke="darkslategray" cx="215" cy="-598" rx="65.1436" ry="37.4533"/>
<text text-anchor="middle" x="215" y="-609.3" font-family="Times,serif" font-size="14.00">nn.Sigmoid</text>
<text text-anchor="middle" x="215" y="-594.3" font-family="Times,serif" font-size="14.00">Storage id: 10</text>
<text text-anchor="middle" x="215" y="-579.3" font-family="Times,serif" font-size="14.00">Size: 172032</text>
</g>
<!-- n13&#45;&gt;n14 -->
<g id="edge13" class="edge"><title>n13&#45;&gt;n14</title>
<path fill="none" stroke="black" d="M215,-672.372C215,-663.927 215,-654.829 215,-646.011"/>
<polygon fill="black" stroke="black" points="218.5,-645.843 215,-635.844 211.5,-645.844 218.5,-645.843"/>
</g>
<!-- n15 -->
<g id="node15" class="node"><title>n15</title>
<ellipse fill="none" stroke="darkslategray" cx="215" cy="-486" rx="82.0366" ry="37.4533"/>
<text text-anchor="middle" x="215" y="-497.3" font-family="Times,serif" font-size="14.00">nn.Reshape(1344)</text>
<text text-anchor="middle" x="215" y="-482.3" font-family="Times,serif" font-size="14.00">Storage id: 10</text>
<text text-anchor="middle" x="215" y="-467.3" font-family="Times,serif" font-size="14.00">Size: 172032</text>
</g>
<!-- n14&#45;&gt;n15 -->
<g id="edge14" class="edge"><title>n14&#45;&gt;n15</title>
<path fill="none" stroke="black" d="M215,-560.372C215,-551.927 215,-542.829 215,-534.011"/>
<polygon fill="black" stroke="black" points="218.5,-533.843 215,-523.844 211.5,-533.844 218.5,-533.843"/>
</g>
<!-- n16 -->
<g id="node16" class="node"><title>n16</title>
<ellipse fill="none" stroke="aquamarine" cx="106" cy="-374" rx="93.0077" ry="37.4533"/>
<text text-anchor="middle" x="106" y="-385.3" font-family="Times,serif" font-size="14.00">nn.Linear(1344 &#45;&gt; 1)</text>
<text text-anchor="middle" x="106" y="-370.3" font-family="Times,serif" font-size="14.00">Storage id: 11</text>
<text text-anchor="middle" x="106" y="-355.3" font-family="Times,serif" font-size="14.00">Size: 128</text>
</g>
<!-- n15&#45;&gt;n16 -->
<g id="edge15" class="edge"><title>n15&#45;&gt;n16</title>
<path fill="none" stroke="black" d="M181.704,-451.399C170.816,-440.411 158.591,-428.073 147.193,-416.571"/>
<polygon fill="black" stroke="black" points="149.369,-413.794 139.844,-409.155 144.397,-418.722 149.369,-413.794"/>
</g>
<!-- n18 -->
<g id="node18" class="node"><title>n18</title>
<ellipse fill="none" stroke="#ee3b3b" cx="324" cy="-374" rx="103.357" ry="37.4533"/>
<text text-anchor="middle" x="324" y="-385.3" font-family="Times,serif" font-size="14.00">nn.Linear(1344 &#45;&gt; 168)</text>
<text text-anchor="middle" x="324" y="-370.3" font-family="Times,serif" font-size="14.00">Storage id: 13</text>
<text text-anchor="middle" x="324" y="-355.3" font-family="Times,serif" font-size="14.00">Size: 21504</text>
</g>
<!-- n15&#45;&gt;n18 -->
<g id="edge17" class="edge"><title>n15&#45;&gt;n18</title>
<path fill="none" stroke="black" d="M248.296,-451.399C259.081,-440.515 271.179,-428.306 282.485,-416.896"/>
<polygon fill="black" stroke="black" points="285.226,-419.103 289.778,-409.536 280.253,-414.176 285.226,-419.103"/>
</g>
<!-- n17 -->
<g id="node17" class="node"><title>n17</title>
<ellipse fill="none" stroke="#1e90ff" cx="99" cy="-262" rx="65.1436" ry="37.4533"/>
<text text-anchor="middle" x="99" y="-273.3" font-family="Times,serif" font-size="14.00">nn.Sigmoid</text>
<text text-anchor="middle" x="99" y="-258.3" font-family="Times,serif" font-size="14.00">Storage id: 12</text>
<text text-anchor="middle" x="99" y="-243.3" font-family="Times,serif" font-size="14.00">Size: 128</text>
</g>
<!-- n16&#45;&gt;n17 -->
<g id="edge16" class="edge"><title>n16&#45;&gt;n17</title>
<path fill="none" stroke="black" d="M103.669,-336.372C103.126,-327.837 102.54,-318.635 101.974,-309.729"/>
<polygon fill="black" stroke="black" points="105.449,-309.226 101.321,-299.468 98.463,-309.671 105.449,-309.226"/>
</g>
<!-- n19 -->
<g id="node19" class="node"><title>n19</title>
<ellipse fill="none" stroke="chartreuse" cx="328" cy="-262" rx="145.496" ry="37.4533"/>
<text text-anchor="middle" x="328" y="-273.3" font-family="Times,serif" font-size="14.00">nn.BatchNormalization (2D) (168)</text>
<text text-anchor="middle" x="328" y="-258.3" font-family="Times,serif" font-size="14.00">Storage id: 14</text>
<text text-anchor="middle" x="328" y="-243.3" font-family="Times,serif" font-size="14.00">Size: 21504</text>
</g>
<!-- n18&#45;&gt;n19 -->
<g id="edge18" class="edge"><title>n18&#45;&gt;n19</title>
<path fill="none" stroke="black" d="M325.332,-336.372C325.639,-327.927 325.97,-318.829 326.291,-310.011"/>
<polygon fill="black" stroke="black" points="329.794,-309.964 326.66,-299.844 322.799,-309.71 329.794,-309.964"/>
</g>
<!-- n20 -->
<g id="node20" class="node"><title>n20</title>
<ellipse fill="none" stroke="chartreuse" cx="328" cy="-150" rx="94.1301" ry="37.4533"/>
<text text-anchor="middle" x="328" y="-161.3" font-family="Times,serif" font-size="14.00">nn.LeakyReLU(0.01)</text>
<text text-anchor="middle" x="328" y="-146.3" font-family="Times,serif" font-size="14.00">Storage id: 14</text>
<text text-anchor="middle" x="328" y="-131.3" font-family="Times,serif" font-size="14.00">Size: 21504</text>
</g>
<!-- n19&#45;&gt;n20 -->
<g id="edge19" class="edge"><title>n19&#45;&gt;n20</title>
<path fill="none" stroke="black" d="M328,-224.372C328,-215.927 328,-206.829 328,-198.011"/>
<polygon fill="black" stroke="black" points="331.5,-197.843 328,-187.844 324.5,-197.844 331.5,-197.843"/>
</g>
<!-- n21 -->
<g id="node21" class="node"><title>n21</title>
<ellipse fill="none" stroke="#7ac5cd" cx="328" cy="-38" rx="93.0077" ry="37.4533"/>
<text text-anchor="middle" x="328" y="-49.3" font-family="Times,serif" font-size="14.00">nn.Linear(168 &#45;&gt; 42)</text>
<text text-anchor="middle" x="328" y="-34.3" font-family="Times,serif" font-size="14.00">Storage id: 15</text>
<text text-anchor="middle" x="328" y="-19.3" font-family="Times,serif" font-size="14.00">Size: 5376</text>
</g>
<!-- n20&#45;&gt;n21 -->
<g id="edge20" class="edge"><title>n20&#45;&gt;n21</title>
<path fill="none" stroke="black" d="M328,-112.372C328,-103.927 328,-94.8286 328,-86.0106"/>
<polygon fill="black" stroke="black" points="331.5,-85.8435 328,-75.8435 324.5,-85.8435 331.5,-85.8435"/>
</g>
</g>
</svg>
