<?xml version="1.0" encoding="UTF-8" standalone="no"?>
<!DOCTYPE svg PUBLIC "-//W3C//DTD SVG 1.1//EN"
 "http://www.w3.org/Graphics/SVG/1.1/DTD/svg11.dtd">
<!-- Generated by graphviz version 2.36.0 (20140111.2315)
 -->
<!-- Title: G Pages: 1 -->
<svg width="470pt" height="1764pt"
 viewBox="0.00 0.00 470.00 1764.00" xmlns="http://www.w3.org/2000/svg" xmlns:xlink="http://www.w3.org/1999/xlink">
<g id="graph0" class="graph" transform="scale(1 1) rotate(0) translate(4 1760)">
<title>G</title>
<polygon fill="white" stroke="none" points="-4,4 -4,-1760 466,-1760 466,4 -4,4"/>
<!-- n1 -->
<g id="node1" class="node"><title>n1</title>
<ellipse fill="none" stroke="gainsboro" cx="231" cy="-1718" rx="60.2186" ry="37.4533"/>
<text text-anchor="middle" x="231" y="-1729.3" font-family="Times,serif" font-size="14.00">Input</text>
<text text-anchor="middle" x="231" y="-1714.3" font-family="Times,serif" font-size="14.00">Storage id: 1</text>
<text text-anchor="middle" x="231" y="-1699.3" font-family="Times,serif" font-size="14.00">Size: 13312</text>
</g>
<!-- n2 -->
<g id="node2" class="node"><title>n2</title>
<ellipse fill="none" stroke="#bf3eff" cx="231" cy="-1606" rx="103.357" ry="37.4533"/>
<text text-anchor="middle" x="231" y="-1617.3" font-family="Times,serif" font-size="14.00">nn.Linear(104 &#45;&gt; 8192)</text>
<text text-anchor="middle" x="231" y="-1602.3" font-family="Times,serif" font-size="14.00">Storage id: 2</text>
<text text-anchor="middle" x="231" y="-1587.3" font-family="Times,serif" font-size="14.00">Size: 1048576</text>
</g>
<!-- n1&#45;&gt;n2 -->
<g id="edge1" class="edge"><title>n1&#45;&gt;n2</title>
<path fill="none" stroke="black" d="M231,-1680.37C231,-1671.93 231,-1662.83 231,-1654.01"/>
<polygon fill="black" stroke="black" points="234.5,-1653.84 231,-1643.84 227.5,-1653.84 234.5,-1653.84"/>
</g>
<!-- n3 -->
<g id="node3" class="node"><title>n3</title>
<ellipse fill="none" stroke="#ee6a50" cx="231" cy="-1494" rx="150.42" ry="37.4533"/>
<text text-anchor="middle" x="231" y="-1505.3" font-family="Times,serif" font-size="14.00">nn.BatchNormalization (2D) (8192)</text>
<text text-anchor="middle" x="231" y="-1490.3" font-family="Times,serif" font-size="14.00">Storage id: 3</text>
<text text-anchor="middle" x="231" y="-1475.3" font-family="Times,serif" font-size="14.00">Size: 1048576</text>
</g>
<!-- n2&#45;&gt;n3 -->
<g id="edge2" class="edge"><title>n2&#45;&gt;n3</title>
<path fill="none" stroke="black" d="M231,-1568.37C231,-1559.93 231,-1550.83 231,-1542.01"/>
<polygon fill="black" stroke="black" points="234.5,-1541.84 231,-1531.84 227.5,-1541.84 234.5,-1541.84"/>
</g>
<!-- n4 -->
<g id="node4" class="node"><title>n4</title>
<ellipse fill="none" stroke="#ee6a50" cx="231" cy="-1382" rx="67.2629" ry="37.4533"/>
<text text-anchor="middle" x="231" y="-1393.3" font-family="Times,serif" font-size="14.00">cudnn.ReLU</text>
<text text-anchor="middle" x="231" y="-1378.3" font-family="Times,serif" font-size="14.00">Storage id: 3</text>
<text text-anchor="middle" x="231" y="-1363.3" font-family="Times,serif" font-size="14.00">Size: 1048576</text>
</g>
<!-- n3&#45;&gt;n4 -->
<g id="edge3" class="edge"><title>n3&#45;&gt;n4</title>
<path fill="none" stroke="black" d="M231,-1456.37C231,-1447.93 231,-1438.83 231,-1430.01"/>
<polygon fill="black" stroke="black" points="234.5,-1429.84 231,-1419.84 227.5,-1429.84 234.5,-1429.84"/>
</g>
<!-- n5 -->
<g id="node5" class="node"><title>n5</title>
<ellipse fill="none" stroke="#ee6a50" cx="231" cy="-1270" rx="96.2499" ry="37.4533"/>
<text text-anchor="middle" x="231" y="-1281.3" font-family="Times,serif" font-size="14.00">nn.Reshape(512x4x4)</text>
<text text-anchor="middle" x="231" y="-1266.3" font-family="Times,serif" font-size="14.00">Storage id: 3</text>
<text text-anchor="middle" x="231" y="-1251.3" font-family="Times,serif" font-size="14.00">Size: 1048576</text>
</g>
<!-- n4&#45;&gt;n5 -->
<g id="edge4" class="edge"><title>n4&#45;&gt;n5</title>
<path fill="none" stroke="black" d="M231,-1344.37C231,-1335.93 231,-1326.83 231,-1318.01"/>
<polygon fill="black" stroke="black" points="234.5,-1317.84 231,-1307.84 227.5,-1317.84 234.5,-1317.84"/>
</g>
<!-- n6 -->
<g id="node6" class="node"><title>n6</title>
<ellipse fill="none" stroke="cyan" cx="231" cy="-1158" rx="231.336" ry="37.4533"/>
<text text-anchor="middle" x="231" y="-1169.3" font-family="Times,serif" font-size="14.00">cudnn.SpatialFullConvolution(512 &#45;&gt; 256, 4x4, 2,2, 1,1)</text>
<text text-anchor="middle" x="231" y="-1154.3" font-family="Times,serif" font-size="14.00">Storage id: 4</text>
<text text-anchor="middle" x="231" y="-1139.3" font-family="Times,serif" font-size="14.00">Size: 2097152</text>
</g>
<!-- n5&#45;&gt;n6 -->
<g id="edge5" class="edge"><title>n5&#45;&gt;n6</title>
<path fill="none" stroke="black" d="M231,-1232.37C231,-1223.93 231,-1214.83 231,-1206.01"/>
<polygon fill="black" stroke="black" points="234.5,-1205.84 231,-1195.84 227.5,-1205.84 234.5,-1205.84"/>
</g>
<!-- n7 -->
<g id="node7" class="node"><title>n7</title>
<ellipse fill="none" stroke="burlywood" cx="231" cy="-1046" rx="172.301" ry="37.4533"/>
<text text-anchor="middle" x="231" y="-1057.3" font-family="Times,serif" font-size="14.00">nn.SpatialBatchNormalization (4D) (256)</text>
<text text-anchor="middle" x="231" y="-1042.3" font-family="Times,serif" font-size="14.00">Storage id: 5</text>
<text text-anchor="middle" x="231" y="-1027.3" font-family="Times,serif" font-size="14.00">Size: 2097152</text>
</g>
<!-- n6&#45;&gt;n7 -->
<g id="edge6" class="edge"><title>n6&#45;&gt;n7</title>
<path fill="none" stroke="black" d="M231,-1120.37C231,-1111.93 231,-1102.83 231,-1094.01"/>
<polygon fill="black" stroke="black" points="234.5,-1093.84 231,-1083.84 227.5,-1093.84 234.5,-1093.84"/>
</g>
<!-- n8 -->
<g id="node8" class="node"><title>n8</title>
<ellipse fill="none" stroke="burlywood" cx="231" cy="-934" rx="67.2629" ry="37.4533"/>
<text text-anchor="middle" x="231" y="-945.3" font-family="Times,serif" font-size="14.00">cudnn.ReLU</text>
<text text-anchor="middle" x="231" y="-930.3" font-family="Times,serif" font-size="14.00">Storage id: 5</text>
<text text-anchor="middle" x="231" y="-915.3" font-family="Times,serif" font-size="14.00">Size: 2097152</text>
</g>
<!-- n7&#45;&gt;n8 -->
<g id="edge7" class="edge"><title>n7&#45;&gt;n8</title>
<path fill="none" stroke="black" d="M231,-1008.37C231,-999.927 231,-990.829 231,-982.011"/>
<polygon fill="black" stroke="black" points="234.5,-981.843 231,-971.844 227.5,-981.844 234.5,-981.843"/>
</g>
<!-- n9 -->
<g id="node9" class="node"><title>n9</title>
<ellipse fill="none" stroke="dodgerblue" cx="231" cy="-822" rx="231.336" ry="37.4533"/>
<text text-anchor="middle" x="231" y="-833.3" font-family="Times,serif" font-size="14.00">cudnn.SpatialFullConvolution(256 &#45;&gt; 128, 4x4, 2,2, 1,1)</text>
<text text-anchor="middle" x="231" y="-818.3" font-family="Times,serif" font-size="14.00">Storage id: 6</text>
<text text-anchor="middle" x="231" y="-803.3" font-family="Times,serif" font-size="14.00">Size: 4194304</text>
</g>
<!-- n8&#45;&gt;n9 -->
<g id="edge8" class="edge"><title>n8&#45;&gt;n9</title>
<path fill="none" stroke="black" d="M231,-896.372C231,-887.927 231,-878.829 231,-870.011"/>
<polygon fill="black" stroke="black" points="234.5,-869.843 231,-859.844 227.5,-869.844 234.5,-869.843"/>
</g>
<!-- n10 -->
<g id="node10" class="node"><title>n10</title>
<ellipse fill="none" stroke="#8b4513" cx="231" cy="-710" rx="172.301" ry="37.4533"/>
<text text-anchor="middle" x="231" y="-721.3" font-family="Times,serif" font-size="14.00">nn.SpatialBatchNormalization (4D) (128)</text>
<text text-anchor="middle" x="231" y="-706.3" font-family="Times,serif" font-size="14.00">Storage id: 7</text>
<text text-anchor="middle" x="231" y="-691.3" font-family="Times,serif" font-size="14.00">Size: 4194304</text>
</g>
<!-- n9&#45;&gt;n10 -->
<g id="edge9" class="edge"><title>n9&#45;&gt;n10</title>
<path fill="none" stroke="black" d="M231,-784.372C231,-775.927 231,-766.829 231,-758.011"/>
<polygon fill="black" stroke="black" points="234.5,-757.843 231,-747.844 227.5,-757.844 234.5,-757.843"/>
</g>
<!-- n11 -->
<g id="node11" class="node"><title>n11</title>
<ellipse fill="none" stroke="#8b4513" cx="231" cy="-598" rx="67.2629" ry="37.4533"/>
<text text-anchor="middle" x="231" y="-609.3" font-family="Times,serif" font-size="14.00">cudnn.ReLU</text>
<text text-anchor="middle" x="231" y="-594.3" font-family="Times,serif" font-size="14.00">Storage id: 7</text>
<text text-anchor="middle" x="231" y="-579.3" font-family="Times,serif" font-size="14.00">Size: 4194304</text>
</g>
<!-- n10&#45;&gt;n11 -->
<g id="edge10" class="edge"><title>n10&#45;&gt;n11</title>
<path fill="none" stroke="black" d="M231,-672.372C231,-663.927 231,-654.829 231,-646.011"/>
<polygon fill="black" stroke="black" points="234.5,-645.843 231,-635.844 227.5,-645.844 234.5,-645.843"/>
</g>
<!-- n12 -->
<g id="node12" class="node"><title>n12</title>
<ellipse fill="none" stroke="darksalmon" cx="231" cy="-486" rx="225.912" ry="37.4533"/>
<text text-anchor="middle" x="231" y="-497.3" font-family="Times,serif" font-size="14.00">cudnn.SpatialFullConvolution(128 &#45;&gt; 64, 4x4, 2,2, 1,1)</text>
<text text-anchor="middle" x="231" y="-482.3" font-family="Times,serif" font-size="14.00">Storage id: 8</text>
<text text-anchor="middle" x="231" y="-467.3" font-family="Times,serif" font-size="14.00">Size: 8388608</text>
</g>
<!-- n11&#45;&gt;n12 -->
<g id="edge11" class="edge"><title>n11&#45;&gt;n12</title>
<path fill="none" stroke="black" d="M231,-560.372C231,-551.927 231,-542.829 231,-534.011"/>
<polygon fill="black" stroke="black" points="234.5,-533.843 231,-523.844 227.5,-533.844 234.5,-533.843"/>
</g>
<!-- n13 -->
<g id="node13" class="node"><title>n13</title>
<ellipse fill="none" stroke="#698b69" cx="231" cy="-374" rx="167.376" ry="37.4533"/>
<text text-anchor="middle" x="231" y="-385.3" font-family="Times,serif" font-size="14.00">nn.SpatialBatchNormalization (4D) (64)</text>
<text text-anchor="middle" x="231" y="-370.3" font-family="Times,serif" font-size="14.00">Storage id: 9</text>
<text text-anchor="middle" x="231" y="-355.3" font-family="Times,serif" font-size="14.00">Size: 8388608</text>
</g>
<!-- n12&#45;&gt;n13 -->
<g id="edge12" class="edge"><title>n12&#45;&gt;n13</title>
<path fill="none" stroke="black" d="M231,-448.372C231,-439.927 231,-430.829 231,-422.011"/>
<polygon fill="black" stroke="black" points="234.5,-421.843 231,-411.844 227.5,-421.844 234.5,-421.843"/>
</g>
<!-- n14 -->
<g id="node14" class="node"><title>n14</title>
<ellipse fill="none" stroke="#698b69" cx="231" cy="-262" rx="67.2629" ry="37.4533"/>
<text text-anchor="middle" x="231" y="-273.3" font-family="Times,serif" font-size="14.00">cudnn.ReLU</text>
<text text-anchor="middle" x="231" y="-258.3" font-family="Times,serif" font-size="14.00">Storage id: 9</text>
<text text-anchor="middle" x="231" y="-243.3" font-family="Times,serif" font-size="14.00">Size: 8388608</text>
</g>
<!-- n13&#45;&gt;n14 -->
<g id="edge13" class="edge"><title>n13&#45;&gt;n14</title>
<path fill="none" stroke="black" d="M231,-336.372C231,-327.927 231,-318.829 231,-310.011"/>
<polygon fill="black" stroke="black" points="234.5,-309.843 231,-299.844 227.5,-309.844 234.5,-309.843"/>
</g>
<!-- n15 -->
<g id="node15" class="node"><title>n15</title>
<ellipse fill="none" stroke="deepskyblue" cx="231" cy="-150" rx="217.123" ry="37.4533"/>
<text text-anchor="middle" x="231" y="-161.3" font-family="Times,serif" font-size="14.00">cudnn.SpatialFullConvolution(64 &#45;&gt; 3, 4x4, 2,2, 1,1)</text>
<text text-anchor="middle" x="231" y="-146.3" font-family="Times,serif" font-size="14.00">Storage id: 10</text>
<text text-anchor="middle" x="231" y="-131.3" font-family="Times,serif" font-size="14.00">Size: 1572864</text>
</g>
<!-- n14&#45;&gt;n15 -->
<g id="edge14" class="edge"><title>n14&#45;&gt;n15</title>
<path fill="none" stroke="black" d="M231,-224.372C231,-215.927 231,-206.829 231,-198.011"/>
<polygon fill="black" stroke="black" points="234.5,-197.843 231,-187.844 227.5,-197.844 234.5,-197.843"/>
</g>
<!-- n16 -->
<g id="node16" class="node"><title>n16</title>
<ellipse fill="none" stroke="#ff7f00" cx="231" cy="-38" rx="67.2629" ry="37.4533"/>
<text text-anchor="middle" x="231" y="-49.3" font-family="Times,serif" font-size="14.00">nn.Tanh</text>
<text text-anchor="middle" x="231" y="-34.3" font-family="Times,serif" font-size="14.00">Storage id: 11</text>
<text text-anchor="middle" x="231" y="-19.3" font-family="Times,serif" font-size="14.00">Size: 1572864</text>
</g>
<!-- n15&#45;&gt;n16 -->
<g id="edge15" class="edge"><title>n15&#45;&gt;n16</title>
<path fill="none" stroke="black" d="M231,-112.372C231,-103.927 231,-94.8286 231,-86.0106"/>
<polygon fill="black" stroke="black" points="234.5,-85.8435 231,-75.8435 227.5,-85.8435 234.5,-85.8435"/>
</g>
</g>
</svg>
